<?xml version="1.0" encoding="utf-8"?>
<!-- Generator: Adobe Illustrator 15.0.2, SVG Export Plug-In . SVG Version: 6.00 Build 0)  -->
<!DOCTYPE svg PUBLIC "-//W3C//DTD SVG 1.1//EN" "http://www.w3.org/Graphics/SVG/1.1/DTD/svg11.dtd">
<svg version="1.1" xmlns="http://www.w3.org/2000/svg" xmlns:xlink="http://www.w3.org/1999/xlink" x="0px" y="0px" width="296.1px"
	 height="33px" viewBox="0 0 296.1 33" enable-background="new 0 0 296.1 33" xml:space="preserve">
<g id="Layer_2">
	<g>
		<path fill="#FFFFFF" d="M36,13.5h2.8l3.1,5l3.1-5h2.8v11.9h-2.6v-7.8L42,22.7h-0.1l-3.3-5v7.7H36V13.5z"/>
		<path fill="#FFFFFF" d="M50.8,13.5h2.6v11.9h-2.6V13.5z"/>
		<path fill="#FFFFFF" d="M55.8,19.5L55.8,19.5c0-3.4,2.5-6.2,6.2-6.2c2.2,0,3.6,0.7,4.7,1.8L65,17.1c-0.9-0.8-1.9-1.3-3-1.3
			c-2,0-3.5,1.7-3.5,3.7v0c0,2,1.4,3.7,3.5,3.7c1.4,0,2.2-0.5,3.1-1.4l1.7,1.7c-1.2,1.3-2.6,2.1-4.9,2.1
			C58.4,25.6,55.8,22.9,55.8,19.5z"/>
		<path fill="#FFFFFF" d="M68.8,13.5h2.6v4.7h4.8v-4.7h2.6v11.9h-2.6v-4.8h-4.8v4.8h-2.6V13.5z"/>
		<path fill="#FFFFFF" d="M81.7,13.5h2.6v11.9h-2.6V13.5z"/>
		<path fill="#FFFFFF" d="M86.7,19.5L86.7,19.5c0-3.4,2.6-6.2,6.2-6.2c2.1,0,3.4,0.6,4.7,1.6L96,17c-0.9-0.8-1.7-1.2-3.1-1.2
			c-1.9,0-3.4,1.7-3.4,3.7v0c0,2.2,1.5,3.8,3.6,3.8c1,0,1.8-0.2,2.5-0.7v-1.7h-2.6v-2.3h5.2v5.2c-1.2,1-2.9,1.9-5.1,1.9
			C89.3,25.6,86.7,23,86.7,19.5z"/>
		<path fill="#FFFFFF" d="M104.6,13.4h2.4l5.1,12h-2.7l-1.1-2.7h-5l-1.1,2.7h-2.7L104.6,13.4z M107.3,20.5l-1.6-3.9l-1.6,3.9H107.3z
			"/>
		<path fill="#FFFFFF" d="M113.8,13.5h2.4l5.6,7.3v-7.3h2.6v11.9h-2.2l-5.8-7.6v7.6h-2.6V13.5z"/>
		<path fill="#FFFFFF" d="M131.4,23.7l1.5-1.9c1.1,0.9,2.2,1.4,3.6,1.4c1.1,0,1.7-0.4,1.7-1.1v0c0-0.7-0.4-1-2.4-1.5
			c-2.4-0.6-3.9-1.3-3.9-3.6v0c0-2.2,1.7-3.6,4.2-3.6c1.7,0,3.2,0.5,4.4,1.5l-1.4,2c-1.1-0.7-2.1-1.2-3.1-1.2s-1.5,0.5-1.5,1v0
			c0,0.8,0.5,1,2.6,1.6c2.4,0.6,3.8,1.5,3.8,3.6v0c0,2.4-1.8,3.7-4.4,3.7C134.6,25.6,132.8,25,131.4,23.7z"/>
		<path fill="#FFFFFF" d="M145.5,15.9h-3.6v-2.4h9.9v2.4h-3.6v9.5h-2.6V15.9z"/>
		<path fill="#FFFFFF" d="M156.2,13.4h2.4l5.1,12H161l-1.1-2.7h-5l-1.1,2.7h-2.7L156.2,13.4z M159,20.5l-1.6-3.9l-1.6,3.9H159z"/>
		<path fill="#FFFFFF" d="M166.7,15.9h-3.6v-2.4h9.9v2.4h-3.6v9.5h-2.6V15.9z"/>
		<path fill="#FFFFFF" d="M174.9,13.5h9v2.3h-6.4v2.4h5.6v2.3h-5.6v2.5h6.5v2.3h-9.1V13.5z"/>
		<path fill="#FFFFFF" d="M191.3,20.5v-6.9h1.3v6.8c0,2.6,1.4,4,3.6,4c2.2,0,3.6-1.3,3.6-3.9v-6.9h1.3v6.8c0,3.5-2,5.3-5,5.3
			C193.3,25.6,191.3,23.8,191.3,20.5z"/>
		<path fill="#FFFFFF" d="M204.3,13.5h1.3l7.5,9.5v-9.5h1.3v11.9h-1.1l-7.7-9.8v9.8h-1.3V13.5z"/>
		<path fill="#FFFFFF" d="M217.7,13.5h1.3v11.9h-1.3V13.5z"/>
		<path fill="#FFFFFF" d="M221.5,13.5h1.5l4.2,10.2l4.2-10.2h1.4l-5.1,12h-1.2L221.5,13.5z"/>
		<path fill="#FFFFFF" d="M235.1,13.5h8.6v1.2h-7.3v4.1h6.5V20h-6.5v4.2h7.3v1.2h-8.7V13.5z"/>
		<path fill="#FFFFFF" d="M246.5,13.5h5.1c1.5,0,2.6,0.4,3.4,1.2c0.6,0.6,0.9,1.4,0.9,2.3v0c0,2-1.4,3.1-3.2,3.5l3.7,4.9h-1.6
			l-3.4-4.6h-3.4v4.6h-1.3V13.5z M251.5,19.6c1.8,0,3.1-0.9,3.1-2.4v0c0-1.5-1.1-2.3-3-2.3h-3.7v4.8H251.5z"/>
		<path fill="#FFFFFF" d="M257.9,23.7l0.8-1c1.2,1.1,2.4,1.7,4.1,1.7c1.6,0,2.7-0.8,2.7-2v0c0-1.1-0.6-1.7-3.1-2.3
			c-2.7-0.6-4-1.5-4-3.4v0c0-1.9,1.6-3.2,3.9-3.2c1.7,0,3,0.5,4.2,1.5l-0.8,1c-1.1-0.9-2.2-1.3-3.4-1.3c-1.5,0-2.5,0.8-2.5,1.9v0
			c0,1.1,0.6,1.8,3.2,2.3c2.7,0.6,3.9,1.5,3.9,3.4v0c0,2-1.7,3.4-4.1,3.4C260.9,25.6,259.3,25,257.9,23.7z"/>
		<path fill="#FFFFFF" d="M269.6,13.5h1.3v11.9h-1.3V13.5z"/>
		<path fill="#FFFFFF" d="M277.5,14.8h-4v-1.2h9.3v1.2h-4v10.7h-1.4V14.8z"/>
		<path fill="#FFFFFF" d="M289,20.7l-4.9-7.2h1.6l4,6l4-6h1.6l-4.9,7.2v4.7H289V20.7z"/>
	</g>
</g>
<g id="Layer_3">
	<g>
		<path fill="#FFFFFF" d="M26.8,2.3c0,0-1.7,3.7-2.6,5.5c-4.3-2-9.9-2.2-14.6,0.5c-3.1,1.9-5.7,5.3-5.9,9c-0.1,2.4,1,5.1,0.6,7.6
			c-0.1,1.3-0.4,2.6-1,3.7c-0.8,1.3-1.7,2.4-3.3,2.5c0.3-0.4,2.8-1.6,1.8-7.1c-0.4-2.2-3.4-7.6-0.5-14.3C4,3.5,15.4-3.8,26.8,2.3z"
			/>
		<path fill="#FFFFFF" d="M13.7,13.1c1.5-0.5,3.1-0.5,4.7-0.2c3,0.5,5.2,2.3,6.3,5c1.1,2.8,1.9,5,3.9,7.4c0.1,0.1-3-0.5-3-0.5
			c0.8-5.5-4.4-5.7-5.9-3.7c1.1,1.2,2.9,1.8,4.4,1.6c-0.3,5.5,1.2,10.4,1.1,10.4c-1.2-0.2-6.9-3.5-8.6-5c-2.4,0.4-4.4,1.3-7.2,1.7
			c-0.1,0,0.5-2.1,0.4-3.1c0-2.9-2.2-5.6-0.6-9.1C10.1,15.4,11.5,13.9,13.7,13.1z"/>
		<g>
			<path fill="#FFFFFF" d="M15.7,11.4c0.2,0,0.4,0,0.4,0c0-0.2,0.2-1.6,1.4-2.5c1.3-1.1,3-1,3-1c-1.7-0.5-3.4-0.6-4.6-0.4L15.7,11.4
				z"/>
			<path fill="#FFFFFF" d="M5,16.4c-0.3,1.6-0.3,3.2-0.1,4c0,0,0.2-1.4,1-2.2c0.7-0.7,1.6-0.8,1.9-0.8c0,0,0.2-0.5,0.1-0.5L5,16.4z"
				/>
			<path fill="#FFFFFF" d="M8.2,16.1c0.1-0.2,0.2-0.4,0.3-0.7l-3-1.2c-0.2,0.4-0.3,0.9-0.4,1.2L8.2,16.1z"/>
			<path fill="#FFFFFF" d="M9,15c0,0,0.5-0.6,0.5-0.6l-2.8-2.1C6.4,12.6,6.2,13,6,13.5L9,15z"/>
			<path fill="#FFFFFF" d="M10,13.8c0,0,0.6-0.6,0.6-0.6l-2.4-2.7c-0.5,0.5-0.7,0.7-1,1.1L10,13.8z"/>
			<path fill="#FFFFFF" d="M11.2,12.9c0,0,0.7-0.4,0.7-0.4l-1.8-3.2C9.5,9.6,9,9.9,8.8,10.1L11.2,12.9z"/>
			<path fill="#FFFFFF" d="M12.5,12.2c0.8-0.3,0.8-0.3,0.8-0.3l-1-3.6c-0.6,0.2-1.3,0.5-1.5,0.6L12.5,12.2z"/>
			<path fill="#FFFFFF" d="M14,11.7c0,0,0.8-0.2,0.8-0.2l0.1-3.9c0,0-0.9,0.2-1.7,0.4L14,11.7z"/>
		</g>
	</g>
</g>
</svg>
